<svg width="40" height="40" viewBox="0 0 40 40" fill="none" xmlns="http://www.w3.org/2000/svg">
<path d="M20 11.9883C15.5664 11.9883 11.9883 15.5664 11.9883 20C11.9883 24.4336 15.5664 28.0117 20 28.0117C24.4336 28.0117 28.0117 24.4336 28.0117 20C28.0117 15.5664 24.4336 11.9883 20 11.9883ZM20 25.207C17.1328 25.207 14.793 22.8672 14.793 20C14.793 17.1328 17.1328 14.793 20 14.793C22.8672 14.793 25.207 17.1328 25.207 20C25.207 22.8672 22.8672 25.207 20 25.207ZM28.3398 9.79297C27.3047 9.79297 26.4688 10.6289 26.4688 11.6641C26.4688 12.6992 27.3047 13.5352 28.3398 13.5352C29.375 13.5352 30.2109 12.7031 30.2109 11.6641C30.2113 11.4183 30.1631 11.1748 30.0691 10.9477C29.9752 10.7205 29.8374 10.5141 29.6636 10.3403C29.4898 10.1665 29.2834 10.0287 29.0562 9.93477C28.8291 9.84085 28.5856 9.79266 28.3398 9.79297ZM35.6172 20C35.6172 17.8438 35.6367 15.707 35.5156 13.5547C35.3945 11.0547 34.8242 8.83594 32.9961 7.00781C31.1641 5.17578 28.9492 4.60938 26.4492 4.48828C24.293 4.36719 22.1562 4.38672 20.0039 4.38672C17.8477 4.38672 15.7109 4.36719 13.5586 4.48828C11.0586 4.60938 8.83985 5.17969 7.01172 7.00781C5.17969 8.83985 4.61328 11.0547 4.49219 13.5547C4.3711 15.7109 4.39063 17.8477 4.39063 20C4.39063 22.1523 4.3711 24.293 4.49219 26.4453C4.61328 28.9453 5.1836 31.1641 7.01172 32.9922C8.84375 34.8242 11.0586 35.3906 13.5586 35.5117C15.7148 35.6328 17.8516 35.6133 20.0039 35.6133C22.1602 35.6133 24.2969 35.6328 26.4492 35.5117C28.9492 35.3906 31.168 34.8203 32.9961 32.9922C34.8281 31.1602 35.3945 28.9453 35.5156 26.4453C35.6406 24.293 35.6172 22.1563 35.6172 20ZM32.1797 29.2109C31.8945 29.9219 31.5508 30.4531 31 31C30.4492 31.5508 29.9219 31.8945 29.2109 32.1797C27.1563 32.9961 22.2773 32.8125 20 32.8125C17.7227 32.8125 12.8398 32.9961 10.7852 32.1836C10.0742 31.8984 9.54297 31.5547 8.9961 31.0039C8.44531 30.4531 8.10157 29.9258 7.81641 29.2148C7.00391 27.1563 7.1875 22.2773 7.1875 20C7.1875 17.7227 7.00391 12.8398 7.81641 10.7852C8.10157 10.0742 8.44531 9.54297 8.9961 8.9961C9.54688 8.44922 10.0742 8.10156 10.7852 7.81641C12.8398 7.00391 17.7227 7.1875 20 7.1875C22.2773 7.1875 27.1602 7.00391 29.2148 7.81641C29.9258 8.10156 30.457 8.44531 31.0039 8.9961C31.5547 9.54688 31.8984 10.0742 32.1836 10.7852C32.9961 12.8398 32.8125 17.7227 32.8125 20C32.8125 22.2773 32.9961 27.1563 32.1797 29.2109Z" fill="#F5F5F5"/>
</svg>
