<svg width="112" height="31" viewBox="0 0 112 31" fill="none" xmlns="http://www.w3.org/2000/svg">
<g filter="url(#filter0_d_147_2)">
<path d="M17.7778 15.01C17.7778 16.03 17.6578 16.99 17.4178 17.89C17.1978 18.79 16.7978 19.58 16.2178 20.26C15.6578 20.92 14.8878 21.45 13.9078 21.85C12.9478 22.23 11.7278 22.42 10.2478 22.42C8.88781 22.42 7.71781 22.26 6.73781 21.94C5.75781 21.6 4.94781 21.21 4.30781 20.77L5.86781 17.14C6.44781 17.48 7.06781 17.78 7.72781 18.04C8.38781 18.3 9.10781 18.43 9.88781 18.43C11.0278 18.43 11.8478 18.15 12.3478 17.59C12.8478 17.03 13.0978 16.09 13.0978 14.77V1.21H17.7778V15.01Z" fill="#F5F5F5"/>
<path d="M40.7067 1.21V5.2H34.4367V22H29.7567V5.2H23.4867V1.21H40.7067ZM46.7145 22V1.21H60.7545V5.14H51.3945V9.22H59.7045V13.06H51.3945V18.07H61.4445V22H46.7145ZM77.3878 22.42C74.0078 22.42 71.4278 21.48 69.6478 19.6C67.8878 17.72 67.0078 15.05 67.0078 11.59C67.0078 9.87 67.2778 8.34 67.8178 7C68.3578 5.64 69.0978 4.5 70.0378 3.58C70.9778 2.64 72.0978 1.93 73.3978 1.45C74.6978 0.969998 76.1078 0.729998 77.6278 0.729998C78.5078 0.729998 79.3078 0.799999 80.0278 0.939999C80.7478 1.06 81.3778 1.21 81.9178 1.39C82.4578 1.55 82.9078 1.72 83.2678 1.9C83.6278 2.08 83.8878 2.22 84.0478 2.32L82.6978 6.1C82.0578 5.76 81.3078 5.47 80.4478 5.23C79.6078 4.99 78.6478 4.87 77.5678 4.87C76.8478 4.87 76.1378 4.99 75.4378 5.23C74.7578 5.47 74.1478 5.86 73.6078 6.4C73.0878 6.92 72.6678 7.6 72.3478 8.44C72.0278 9.28 71.8678 10.3 71.8678 11.5C71.8678 12.46 71.9678 13.36 72.1678 14.2C72.3878 15.02 72.7278 15.73 73.1878 16.33C73.6678 16.93 74.2878 17.41 75.0478 17.77C75.8078 18.11 76.7278 18.28 77.8078 18.28C78.4878 18.28 79.0978 18.24 79.6378 18.16C80.1778 18.08 80.6578 17.99 81.0778 17.89C81.4978 17.77 81.8678 17.64 82.1878 17.5C82.5078 17.36 82.7978 17.23 83.0578 17.11L84.3478 20.86C83.6878 21.26 82.7578 21.62 81.5578 21.94C80.3578 22.26 78.9678 22.42 77.3878 22.42ZM102.901 1.21H107.581V22H102.901V13.18H95.0409V22H90.3609V1.21H95.0409V9.16H102.901V1.21Z" fill="#2FA4FF"/>
</g>
<defs>
<filter id="filter0_d_147_2" x="0.3078" y="0.72998" width="111.273" height="29.6901" filterUnits="userSpaceOnUse" color-interpolation-filters="sRGB">
<feFlood flood-opacity="0" result="BackgroundImageFix"/>
<feColorMatrix in="SourceAlpha" type="matrix" values="0 0 0 0 0 0 0 0 0 0 0 0 0 0 0 0 0 0 127 0" result="hardAlpha"/>
<feOffset dy="4"/>
<feGaussianBlur stdDeviation="2"/>
<feComposite in2="hardAlpha" operator="out"/>
<feColorMatrix type="matrix" values="0 0 0 0 0 0 0 0 0 0 0 0 0 0 0 0 0 0 0.25 0"/>
<feBlend mode="normal" in2="BackgroundImageFix" result="effect1_dropShadow_147_2"/>
<feBlend mode="normal" in="SourceGraphic" in2="effect1_dropShadow_147_2" result="shape"/>
</filter>
</defs>
</svg>
